<svg xmlns="http://www.w3.org/2000/svg" width="420" height="334" viewBox="0 0 420 334" fill="none">
<circle cx="268.5" cy="111.5" r="221.58" stroke="white" stroke-opacity="0.2" stroke-width="1.84" stroke-dasharray="15.14 15.14"/>
<g clip-path="url(#clip0_9915_27697)">
<path d="M252.5 55H60.5V247H252.5V55Z" fill="white"/>
<path d="M67.6113 62.1111H74.7224V69.2222H67.6113V62.1111ZM74.7224 62.1111H81.8335V69.2222H74.7224V62.1111ZM81.8335 62.1111H88.9447V69.2222H81.8335V62.1111ZM88.9447 62.1111H96.0558V69.2222H88.9447V62.1111ZM96.0558 62.1111H103.167V69.2222H96.0558V62.1111ZM103.167 62.1111H110.278V69.2222H103.167V62.1111ZM110.278 62.1111H117.389V69.2222H110.278V62.1111ZM124.5 62.1111H131.611V69.2222H124.5V62.1111ZM131.611 62.1111H138.722V69.2222H131.611V62.1111ZM160.056 62.1111H167.167V69.2222H160.056V62.1111ZM181.389 62.1111H188.5V69.2222H181.389V62.1111ZM195.611 62.1111H202.722V69.2222H195.611V62.1111ZM202.722 62.1111H209.834V69.2222H202.722V62.1111ZM209.834 62.1111H216.945V69.2222H209.834V62.1111ZM216.945 62.1111H224.056V69.2222H216.945V62.1111ZM224.056 62.1111H231.167V69.2222H224.056V62.1111ZM231.167 62.1111H238.278V69.2222H231.167V62.1111ZM238.278 62.1111H245.389V69.2222H238.278V62.1111ZM67.6113 69.2222H74.7224V76.3333H67.6113V69.2222ZM110.278 69.2222H117.389V76.3333H110.278V69.2222ZM160.056 69.2222H167.167V76.3333H160.056V69.2222ZM195.611 69.2222H202.722V76.3333H195.611V69.2222ZM238.278 69.2222H245.389V76.3333H238.278V69.2222ZM67.6113 76.3333H74.7224V83.4444H67.6113V76.3333ZM81.8335 76.3333H88.9447V83.4444H81.8335V76.3333ZM88.9447 76.3333H96.0558V83.4444H88.9447V76.3333ZM96.0558 76.3333H103.167V83.4444H96.0558V76.3333ZM110.278 76.3333H117.389V83.4444H110.278V76.3333ZM124.5 76.3333H131.611V83.4444H124.5V76.3333ZM145.834 76.3333H152.945V83.4444H145.834V76.3333ZM152.945 76.3333H160.056V83.4444H152.945V76.3333ZM160.056 76.3333H167.167V83.4444H160.056V76.3333ZM167.167 76.3333H174.278V83.4444H167.167V76.3333ZM195.611 76.3333H202.722V83.4444H195.611V76.3333ZM209.834 76.3333H216.945V83.4444H209.834V76.3333ZM216.945 76.3333H224.056V83.4444H216.945V76.3333ZM224.056 76.3333H231.167V83.4444H224.056V76.3333ZM238.278 76.3333H245.389V83.4444H238.278V76.3333ZM67.6113 83.4444H74.7224V90.5556H67.6113V83.4444ZM81.8335 83.4444H88.9447V90.5556H81.8335V83.4444ZM88.9447 83.4444H96.0558V90.5556H88.9447V83.4444ZM96.0558 83.4444H103.167V90.5556H96.0558V83.4444ZM110.278 83.4444H117.389V90.5556H110.278V83.4444ZM124.5 83.4444H131.611V90.5556H124.5V83.4444ZM131.611 83.4444H138.722V90.5556H131.611V83.4444ZM145.834 83.4444H152.945V90.5556H145.834V83.4444ZM152.945 83.4444H160.056V90.5556H152.945V83.4444ZM160.056 83.4444H167.167V90.5556H160.056V83.4444ZM174.278 83.4444H181.389V90.5556H174.278V83.4444ZM181.389 83.4444H188.5V90.5556H181.389V83.4444ZM195.611 83.4444H202.722V90.5556H195.611V83.4444ZM209.834 83.4444H216.945V90.5556H209.834V83.4444ZM216.945 83.4444H224.056V90.5556H216.945V83.4444ZM224.056 83.4444H231.167V90.5556H224.056V83.4444ZM238.278 83.4444H245.389V90.5556H238.278V83.4444ZM67.6113 90.5556H74.7224V97.6667H67.6113V90.5556ZM81.8335 90.5556H88.9447V97.6667H81.8335V90.5556ZM88.9447 90.5556H96.0558V97.6667H88.9447V90.5556ZM96.0558 90.5556H103.167V97.6667H96.0558V90.5556ZM110.278 90.5556H117.389V97.6667H110.278V90.5556ZM124.5 90.5556H131.611V97.6667H124.5V90.5556ZM131.611 90.5556H138.722V97.6667H131.611V90.5556ZM138.722 90.5556H145.834V97.6667H138.722V90.5556ZM145.834 90.5556H152.945V97.6667H145.834V90.5556ZM160.056 90.5556H167.167V97.6667H160.056V90.5556ZM167.167 90.5556H174.278V97.6667H167.167V90.5556ZM174.278 90.5556H181.389V97.6667H174.278V90.5556ZM181.389 90.5556H188.5V97.6667H181.389V90.5556ZM195.611 90.5556H202.722V97.6667H195.611V90.5556ZM209.834 90.5556H216.945V97.6667H209.834V90.5556ZM216.945 90.5556H224.056V97.6667H216.945V90.5556ZM224.056 90.5556H231.167V97.6667H224.056V90.5556ZM238.278 90.5556H245.389V97.6667H238.278V90.5556ZM67.6113 97.6667H74.7224V104.778H67.6113V97.6667ZM110.278 97.6667H117.389V104.778H110.278V97.6667ZM131.611 97.6667H138.722V104.778H131.611V97.6667ZM167.167 97.6667H174.278V104.778H167.167V97.6667ZM181.389 97.6667H188.5V104.778H181.389V97.6667ZM195.611 97.6667H202.722V104.778H195.611V97.6667ZM238.278 97.6667H245.389V104.778H238.278V97.6667ZM67.6113 104.778H74.7224V111.889H67.6113V104.778ZM74.7224 104.778H81.8335V111.889H74.7224V104.778ZM81.8335 104.778H88.9447V111.889H81.8335V104.778ZM88.9447 104.778H96.0558V111.889H88.9447V104.778ZM96.0558 104.778H103.167V111.889H96.0558V104.778ZM103.167 104.778H110.278V111.889H103.167V104.778ZM110.278 104.778H117.389V111.889H110.278V104.778ZM124.5 104.778H131.611V111.889H124.5V104.778ZM138.722 104.778H145.834V111.889H138.722V104.778ZM152.945 104.778H160.056V111.889H152.945V104.778ZM167.167 104.778H174.278V111.889H167.167V104.778ZM181.389 104.778H188.5V111.889H181.389V104.778ZM195.611 104.778H202.722V111.889H195.611V104.778ZM202.722 104.778H209.834V111.889H202.722V104.778ZM209.834 104.778H216.945V111.889H209.834V104.778ZM216.945 104.778H224.056V111.889H216.945V104.778ZM224.056 104.778H231.167V111.889H224.056V104.778ZM231.167 104.778H238.278V111.889H231.167V104.778ZM238.278 104.778H245.389V111.889H238.278V104.778ZM131.611 111.889H138.722V119H131.611V111.889ZM145.834 111.889H152.945V119H145.834V111.889ZM174.278 111.889H181.389V119H174.278V111.889ZM181.389 111.889H188.5V119H181.389V111.889ZM67.6113 119H74.7224V126.111H67.6113V119ZM74.7224 119H81.8335V126.111H74.7224V119ZM81.8335 119H88.9447V126.111H81.8335V119ZM88.9447 119H96.0558V126.111H88.9447V119ZM110.278 119H117.389V126.111H110.278V119ZM124.5 119H131.611V126.111H124.5V119ZM152.945 119H160.056V126.111H152.945V119ZM167.167 119H174.278V126.111H167.167V119ZM174.278 119H181.389V126.111H174.278V119ZM181.389 119H188.5V126.111H181.389V119ZM188.5 119H195.611V126.111H188.5V119ZM209.834 119H216.945V126.111H209.834V119ZM216.945 119H224.056V126.111H216.945V119ZM224.056 119H231.167V126.111H224.056V119ZM238.278 119H245.389V126.111H238.278V119ZM74.7224 126.111H81.8335V133.222H74.7224V126.111ZM81.8335 126.111H88.9447V133.222H81.8335V126.111ZM88.9447 126.111H96.0558V133.222H88.9447V126.111ZM117.389 126.111H124.5V133.222H117.389V126.111ZM124.5 126.111H131.611V133.222H124.5V126.111ZM131.611 126.111H138.722V133.222H131.611V126.111ZM145.834 126.111H152.945V133.222H145.834V126.111ZM202.722 126.111H209.834V133.222H202.722V126.111ZM231.167 126.111H238.278V133.222H231.167V126.111ZM74.7224 133.222H81.8335V140.333H74.7224V133.222ZM88.9447 133.222H96.0558V140.333H88.9447V133.222ZM103.167 133.222H110.278V140.333H103.167V133.222ZM110.278 133.222H117.389V140.333H110.278V133.222ZM124.5 133.222H131.611V140.333H124.5V133.222ZM145.834 133.222H152.945V140.333H145.834V133.222ZM181.389 133.222H188.5V140.333H181.389V133.222ZM195.611 133.222H202.722V140.333H195.611V133.222ZM202.722 133.222H209.834V140.333H202.722V133.222ZM103.167 140.333H110.278V147.444H103.167V140.333ZM117.389 140.333H124.5V147.444H117.389V140.333ZM124.5 140.333H131.611V147.444H124.5V140.333ZM160.056 140.333H167.167V147.444H160.056V140.333ZM174.278 140.333H181.389V147.444H174.278V140.333ZM181.389 140.333H188.5V147.444H181.389V140.333ZM195.611 140.333H202.722V147.444H195.611V140.333ZM209.834 140.333H216.945V147.444H209.834V140.333ZM216.945 140.333H224.056V147.444H216.945V140.333ZM224.056 140.333H231.167V147.444H224.056V140.333ZM67.6113 147.444H74.7224V154.556H67.6113V147.444ZM103.167 147.444H110.278V154.556H103.167V147.444ZM110.278 147.444H117.389V154.556H110.278V147.444ZM117.389 147.444H124.5V154.556H117.389V147.444ZM131.611 147.444H138.722V154.556H131.611V147.444ZM160.056 147.444H167.167V154.556H160.056V147.444ZM167.167 147.444H174.278V154.556H167.167V147.444ZM188.5 147.444H195.611V154.556H188.5V147.444ZM195.611 147.444H202.722V154.556H195.611V147.444ZM209.834 147.444H216.945V154.556H209.834V147.444ZM224.056 147.444H231.167V154.556H224.056V147.444ZM231.167 147.444H238.278V154.556H231.167V147.444ZM238.278 147.444H245.389V154.556H238.278V147.444ZM81.8335 154.556H88.9447V161.667H81.8335V154.556ZM88.9447 154.556H96.0558V161.667H88.9447V154.556ZM103.167 154.556H110.278V161.667H103.167V154.556ZM117.389 154.556H124.5V161.667H117.389V154.556ZM124.5 154.556H131.611V161.667H124.5V154.556ZM131.611 154.556H138.722V161.667H131.611V154.556ZM138.722 154.556H145.834V161.667H138.722V154.556ZM152.945 154.556H160.056V161.667H152.945V154.556ZM167.167 154.556H174.278V161.667H167.167V154.556ZM174.278 154.556H181.389V161.667H174.278V154.556ZM181.389 154.556H188.5V161.667H181.389V154.556ZM188.5 154.556H195.611V161.667H188.5V154.556ZM195.611 154.556H202.722V161.667H195.611V154.556ZM202.722 154.556H209.834V161.667H202.722V154.556ZM209.834 154.556H216.945V161.667H209.834V154.556ZM238.278 154.556H245.389V161.667H238.278V154.556ZM74.7224 161.667H81.8335V168.778H74.7224V161.667ZM81.8335 161.667H88.9447V168.778H81.8335V161.667ZM96.0558 161.667H103.167V168.778H96.0558V161.667ZM103.167 161.667H110.278V168.778H103.167V161.667ZM110.278 161.667H117.389V168.778H110.278V161.667ZM117.389 161.667H124.5V168.778H117.389V161.667ZM138.722 161.667H145.834V168.778H138.722V161.667ZM152.945 161.667H160.056V168.778H152.945V161.667ZM160.056 161.667H167.167V168.778H160.056V161.667ZM181.389 161.667H188.5V168.778H181.389V161.667ZM188.5 161.667H195.611V168.778H188.5V161.667ZM209.834 161.667H216.945V168.778H209.834V161.667ZM224.056 161.667H231.167V168.778H224.056V161.667ZM231.167 161.667H238.278V168.778H231.167V161.667ZM67.6113 168.778H74.7224V175.889H67.6113V168.778ZM96.0558 168.778H103.167V175.889H96.0558V168.778ZM138.722 168.778H145.834V175.889H138.722V168.778ZM152.945 168.778H160.056V175.889H152.945V168.778ZM167.167 168.778H174.278V175.889H167.167V168.778ZM181.389 168.778H188.5V175.889H181.389V168.778ZM188.5 168.778H195.611V175.889H188.5V168.778ZM195.611 168.778H202.722V175.889H195.611V168.778ZM202.722 168.778H209.834V175.889H202.722V168.778ZM209.834 168.778H216.945V175.889H209.834V168.778ZM238.278 168.778H245.389V175.889H238.278V168.778ZM81.8335 175.889H88.9447V183H81.8335V175.889ZM88.9447 175.889H96.0558V183H88.9447V175.889ZM110.278 175.889H117.389V183H110.278V175.889ZM117.389 175.889H124.5V183H117.389V175.889ZM131.611 175.889H138.722V183H131.611V175.889ZM138.722 175.889H145.834V183H138.722V175.889ZM145.834 175.889H152.945V183H145.834V175.889ZM160.056 175.889H167.167V183H160.056V175.889ZM174.278 175.889H181.389V183H174.278V175.889ZM181.389 175.889H188.5V183H181.389V175.889ZM188.5 175.889H195.611V183H188.5V175.889ZM195.611 175.889H202.722V183H195.611V175.889ZM202.722 175.889H209.834V183H202.722V175.889ZM209.834 175.889H216.945V183H209.834V175.889ZM216.945 175.889H224.056V183H216.945V175.889ZM224.056 175.889H231.167V183H224.056V175.889ZM231.167 175.889H238.278V183H231.167V175.889ZM238.278 175.889H245.389V183H238.278V175.889ZM124.5 183H131.611V190.111H124.5V183ZM131.611 183H138.722V190.111H131.611V183ZM138.722 183H145.834V190.111H138.722V183ZM145.834 183H152.945V190.111H145.834V183ZM152.945 183H160.056V190.111H152.945V183ZM160.056 183H167.167V190.111H160.056V183ZM167.167 183H174.278V190.111H167.167V183ZM181.389 183H188.5V190.111H181.389V183ZM209.834 183H216.945V190.111H209.834V183ZM224.056 183H231.167V190.111H224.056V183ZM238.278 183H245.389V190.111H238.278V183ZM67.6113 190.111H74.7224V197.222H67.6113V190.111ZM74.7224 190.111H81.8335V197.222H74.7224V190.111ZM81.8335 190.111H88.9447V197.222H81.8335V190.111ZM88.9447 190.111H96.0558V197.222H88.9447V190.111ZM96.0558 190.111H103.167V197.222H96.0558V190.111ZM103.167 190.111H110.278V197.222H103.167V190.111ZM110.278 190.111H117.389V197.222H110.278V190.111ZM131.611 190.111H138.722V197.222H131.611V190.111ZM160.056 190.111H167.167V197.222H160.056V190.111ZM181.389 190.111H188.5V197.222H181.389V190.111ZM195.611 190.111H202.722V197.222H195.611V190.111ZM209.834 190.111H216.945V197.222H209.834V190.111ZM224.056 190.111H231.167V197.222H224.056V190.111ZM231.167 190.111H238.278V197.222H231.167V190.111ZM238.278 190.111H245.389V197.222H238.278V190.111ZM67.6113 197.222H74.7224V204.333H67.6113V197.222ZM110.278 197.222H117.389V204.333H110.278V197.222ZM145.834 197.222H152.945V204.333H145.834V197.222ZM152.945 197.222H160.056V204.333H152.945V197.222ZM167.167 197.222H174.278V204.333H167.167V197.222ZM174.278 197.222H181.389V204.333H174.278V197.222ZM181.389 197.222H188.5V204.333H181.389V197.222ZM209.834 197.222H216.945V204.333H209.834V197.222ZM231.167 197.222H238.278V204.333H231.167V197.222ZM67.6113 204.333H74.7224V211.444H67.6113V204.333ZM81.8335 204.333H88.9447V211.444H81.8335V204.333ZM88.9447 204.333H96.0558V211.444H88.9447V204.333ZM96.0558 204.333H103.167V211.444H96.0558V204.333ZM110.278 204.333H117.389V211.444H110.278V204.333ZM138.722 204.333H145.834V211.444H138.722V204.333ZM167.167 204.333H174.278V211.444H167.167V204.333ZM181.389 204.333H188.5V211.444H181.389V204.333ZM188.5 204.333H195.611V211.444H188.5V204.333ZM195.611 204.333H202.722V211.444H195.611V204.333ZM202.722 204.333H209.834V211.444H202.722V204.333ZM209.834 204.333H216.945V211.444H209.834V204.333ZM216.945 204.333H224.056V211.444H216.945V204.333ZM231.167 204.333H238.278V211.444H231.167V204.333ZM238.278 204.333H245.389V211.444H238.278V204.333ZM67.6113 211.444H74.7224V218.556H67.6113V211.444ZM81.8335 211.444H88.9447V218.556H81.8335V211.444ZM88.9447 211.444H96.0558V218.556H88.9447V211.444ZM96.0558 211.444H103.167V218.556H96.0558V211.444ZM110.278 211.444H117.389V218.556H110.278V211.444ZM124.5 211.444H131.611V218.556H124.5V211.444ZM131.611 211.444H138.722V218.556H131.611V211.444ZM138.722 211.444H145.834V218.556H138.722V211.444ZM145.834 211.444H152.945V218.556H145.834V211.444ZM160.056 211.444H167.167V218.556H160.056V211.444ZM167.167 211.444H174.278V218.556H167.167V211.444ZM188.5 211.444H195.611V218.556H188.5V211.444ZM195.611 211.444H202.722V218.556H195.611V211.444ZM209.834 211.444H216.945V218.556H209.834V211.444ZM216.945 211.444H224.056V218.556H216.945V211.444ZM224.056 211.444H231.167V218.556H224.056V211.444ZM231.167 211.444H238.278V218.556H231.167V211.444ZM238.278 211.444H245.389V218.556H238.278V211.444ZM67.6113 218.556H74.7224V225.667H67.6113V218.556ZM81.8335 218.556H88.9447V225.667H81.8335V218.556ZM88.9447 218.556H96.0558V225.667H88.9447V218.556ZM96.0558 218.556H103.167V225.667H96.0558V218.556ZM110.278 218.556H117.389V225.667H110.278V218.556ZM124.5 218.556H131.611V225.667H124.5V218.556ZM131.611 218.556H138.722V225.667H131.611V218.556ZM145.834 218.556H152.945V225.667H145.834V218.556ZM152.945 218.556H160.056V225.667H152.945V218.556ZM160.056 218.556H167.167V225.667H160.056V218.556ZM167.167 218.556H174.278V225.667H167.167V218.556ZM181.389 218.556H188.5V225.667H181.389V218.556ZM188.5 218.556H195.611V225.667H188.5V218.556ZM195.611 218.556H202.722V225.667H195.611V218.556ZM209.834 218.556H216.945V225.667H209.834V218.556ZM224.056 218.556H231.167V225.667H224.056V218.556ZM231.167 218.556H238.278V225.667H231.167V218.556ZM67.6113 225.667H74.7224V232.778H67.6113V225.667ZM110.278 225.667H117.389V232.778H110.278V225.667ZM124.5 225.667H131.611V232.778H124.5V225.667ZM131.611 225.667H138.722V232.778H131.611V225.667ZM152.945 225.667H160.056V232.778H152.945V225.667ZM160.056 225.667H167.167V232.778H160.056V225.667ZM188.5 225.667H195.611V232.778H188.5V225.667ZM195.611 225.667H202.722V232.778H195.611V225.667ZM209.834 225.667H216.945V232.778H209.834V225.667ZM224.056 225.667H231.167V232.778H224.056V225.667ZM67.6113 232.778H74.7224V239.889H67.6113V232.778ZM74.7224 232.778H81.8335V239.889H74.7224V232.778ZM81.8335 232.778H88.9447V239.889H81.8335V232.778ZM88.9447 232.778H96.0558V239.889H88.9447V232.778ZM96.0558 232.778H103.167V239.889H96.0558V232.778ZM103.167 232.778H110.278V239.889H103.167V232.778ZM110.278 232.778H117.389V239.889H110.278V232.778ZM124.5 232.778H131.611V239.889H124.5V232.778ZM131.611 232.778H138.722V239.889H131.611V232.778ZM152.945 232.778H160.056V239.889H152.945V232.778ZM160.056 232.778H167.167V239.889H160.056V232.778ZM167.167 232.778H174.278V239.889H167.167V232.778ZM195.611 232.778H202.722V239.889H195.611V232.778ZM202.722 232.778H209.834V239.889H202.722V232.778ZM209.834 232.778H216.945V239.889H209.834V232.778ZM216.945 232.778H224.056V239.889H216.945V232.778ZM224.056 232.778H231.167V239.889H224.056V232.778ZM231.167 232.778H238.278V239.889H231.167V232.778ZM238.278 232.778H245.389V239.889H238.278V232.778Z" fill="black"/>
</g>
<path d="M147.406 304H6.57468C3.47779 304 0.941406 301.524 0.941406 298.5V265.5C0.941406 262.476 3.47779 260 6.57468 260H147.406C150.503 260 153.04 262.476 153.04 265.5V298.5C153.04 301.524 150.503 304 147.406 304Z" fill="black"/>
<path d="M147.406 260.881C150.015 260.881 152.137 262.953 152.137 265.5V298.5C152.137 301.047 150.015 303.119 147.406 303.119H6.57468C3.96647 303.119 1.84414 301.047 1.84414 298.5V265.5C1.84414 262.953 3.96647 260.881 6.57468 260.881H147.406ZM147.406 260H6.57468C3.47779 260 0.941406 262.476 0.941406 265.5V298.5C0.941406 301.524 3.47779 304 6.57468 304H147.406C150.503 304 153.04 301.524 153.04 298.5V265.5C153.04 262.476 150.503 260 147.406 260Z" fill="black"/>
<path d="M54.3644 271.268C54.3644 272.187 54.0827 272.922 53.5279 273.471C52.8899 274.121 52.059 274.449 51.0408 274.449C50.0676 274.449 49.2367 274.116 48.5551 273.46C47.8721 272.794 47.5312 271.978 47.5312 271C47.5312 270.022 47.8721 269.206 48.5551 268.546C49.2367 267.884 50.0676 267.552 51.0408 267.552C51.5252 267.552 51.9872 267.649 52.428 267.831C52.8674 268.014 53.2251 268.261 53.4842 268.566L52.8955 269.147C52.4435 268.625 51.828 268.368 51.0408 268.368C50.331 268.368 49.7156 268.61 49.1931 269.098C48.6762 269.588 48.4171 270.222 48.4171 271C48.4171 271.778 48.6762 272.418 49.1931 272.907C49.7156 273.39 50.331 273.637 51.0408 273.637C51.7942 273.637 52.428 273.39 52.9279 272.902C53.2575 272.579 53.4448 272.133 53.4941 271.564H51.0408V270.769H54.3137C54.3531 270.941 54.3644 271.107 54.3644 271.268Z" fill="white" stroke="white" stroke-width="0.119322" stroke-miterlimit="10"/>
<path d="M59.557 268.513H56.4826V270.603H59.2542V271.397H56.4826V273.487H59.557V274.297H55.6123V267.703H59.557V268.513Z" fill="white" stroke="white" stroke-width="0.119322" stroke-miterlimit="10"/>
<path d="M63.2219 274.297H62.3516V268.513H60.4658V267.703H65.109V268.513H63.2219V274.297Z" fill="white" stroke="white" stroke-width="0.119322" stroke-miterlimit="10"/>
<path d="M68.4688 274.297V267.703H69.3377V274.297H68.4688Z" fill="white" stroke="white" stroke-width="0.119322" stroke-miterlimit="10"/>
<path d="M73.1897 274.297H72.3264V268.513H70.4336V267.703H75.0824V268.513H73.1897V274.297Z" fill="white" stroke="white" stroke-width="0.119322" stroke-miterlimit="10"/>
<path d="M83.8729 273.449C83.2068 274.116 82.3815 274.449 81.3971 274.449C80.407 274.449 79.5817 274.116 78.9156 273.449C78.2509 272.784 77.9199 271.967 77.9199 271C77.9199 270.034 78.2509 269.217 78.9156 268.551C79.5817 267.884 80.407 267.552 81.3971 267.552C82.3758 267.552 83.2011 267.884 83.8673 268.557C84.5376 269.228 84.8686 270.039 84.8686 271C84.8686 271.967 84.5376 272.784 83.8729 273.449ZM79.5592 272.896C80.0606 273.39 80.6704 273.637 81.3971 273.637C82.1181 273.637 82.7336 273.39 83.2293 272.896C83.7292 272.403 83.9827 271.769 83.9827 271C83.9827 270.232 83.7292 269.598 83.2293 269.104C82.7336 268.61 82.1181 268.363 81.3971 268.363C80.6704 268.363 80.0606 268.61 79.5592 269.104C79.0593 269.598 78.8058 270.232 78.8058 271C78.8058 271.769 79.0593 272.403 79.5592 272.896Z" fill="white" stroke="white" stroke-width="0.119322" stroke-miterlimit="10"/>
<path d="M86.0898 274.297V267.703H87.1461L90.4303 272.831H90.4683L90.4303 271.564V267.703H91.2992V274.297H90.3923L86.9531 268.915H86.9151L86.9531 270.189V274.297H86.0898Z" fill="white" stroke="white" stroke-width="0.119322" stroke-miterlimit="10"/>
<path d="M77.7064 283.928C75.0601 283.928 72.8984 285.894 72.8984 288.607C72.8984 291.298 75.0601 293.285 77.7064 293.285C80.3582 293.285 82.52 291.298 82.52 288.607C82.52 285.894 80.3582 283.928 77.7064 283.928ZM77.7064 291.442C76.2544 291.442 75.0052 290.272 75.0052 288.607C75.0052 286.92 76.2544 285.77 77.7064 285.77C79.1584 285.77 80.4132 286.92 80.4132 288.607C80.4132 290.272 79.1584 291.442 77.7064 291.442ZM67.2158 283.928C64.564 283.928 62.4078 285.894 62.4078 288.607C62.4078 291.298 64.564 293.285 67.2158 293.285C69.8663 293.285 72.0238 291.298 72.0238 288.607C72.0238 285.894 69.8663 283.928 67.2158 283.928ZM67.2158 291.442C65.7624 291.442 64.509 290.272 64.509 288.607C64.509 286.92 65.7624 285.77 67.2158 285.77C68.6678 285.77 69.917 286.92 69.917 288.607C69.917 290.272 68.6678 291.442 67.2158 291.442ZM54.7325 285.362V287.35H59.5954C59.4532 288.461 59.0729 289.278 58.4899 289.847C57.7801 290.535 56.6746 291.298 54.7325 291.298C51.7398 291.298 49.3964 288.94 49.3964 286.018C49.3964 283.096 51.7398 280.738 54.7325 280.738C56.3506 280.738 57.528 281.355 58.3969 282.155L59.832 280.754C58.6166 279.621 56.9999 278.751 54.7325 278.751C50.6287 278.751 47.1797 282.011 47.1797 286.018C47.1797 290.025 50.6287 293.285 54.7325 293.285C56.9506 293.285 58.6166 292.575 59.9264 291.244C61.2685 289.934 61.6868 288.091 61.6868 286.604C61.6868 286.142 61.6473 285.717 61.5769 285.362H54.7325ZM105.778 286.903C105.383 285.857 104.162 283.928 101.675 283.928C99.21 283.928 97.1581 285.824 97.1581 288.607C97.1581 291.228 99.1888 293.285 101.911 293.285C104.112 293.285 105.383 291.974 105.905 291.211L104.271 290.148C103.726 290.927 102.984 291.442 101.911 291.442C100.845 291.442 100.08 290.965 99.5902 290.025L105.999 287.435L105.778 286.903ZM99.2438 288.461C99.1889 286.657 100.679 285.733 101.746 285.733C102.583 285.733 103.293 286.142 103.529 286.726L99.2438 288.461ZM94.0344 293H96.1413V279.25H94.0344V293ZM90.584 284.97H90.5136C90.0404 284.423 89.1377 283.928 87.9941 283.928C85.5944 283.928 83.4002 285.985 83.4002 288.622C83.4002 291.244 85.5944 293.285 87.9941 293.285C89.1377 293.285 90.0404 292.786 90.5136 292.222H90.584V292.893C90.584 294.682 89.6052 295.643 88.0265 295.643C86.7393 295.643 85.9408 294.735 85.6113 293.972L83.779 294.719C84.3072 295.959 85.7056 297.485 88.0265 297.485C90.4967 297.485 92.581 296.066 92.581 292.614V284.212H90.584V284.97ZM88.1744 291.442C86.7224 291.442 85.507 290.256 85.507 288.622C85.507 286.973 86.7224 285.77 88.1744 285.77C89.6053 285.77 90.7333 286.973 90.7333 288.622C90.7333 290.256 89.6053 291.442 88.1744 291.442ZM115.642 279.25H110.603V293H112.704V287.79H115.642C117.976 287.79 120.264 286.142 120.264 283.519C120.264 280.899 117.97 279.25 115.642 279.25ZM115.697 285.878H112.704V281.163H115.697C117.266 281.163 118.162 282.435 118.162 283.519C118.162 284.584 117.266 285.878 115.697 285.878ZM128.686 283.902C127.168 283.902 125.589 284.556 124.94 286.007L126.805 286.77C127.206 286.007 127.944 285.759 128.724 285.759C129.814 285.759 130.92 286.399 130.937 287.528V287.672C130.556 287.457 129.742 287.14 128.741 287.14C126.733 287.14 124.686 288.219 124.686 290.234C124.686 292.076 126.331 293.263 128.18 293.263C129.594 293.263 130.375 292.64 130.865 291.915H130.937V292.978H132.966V287.704C132.966 285.266 131.101 283.902 128.686 283.902ZM128.433 291.437C127.745 291.437 126.788 291.104 126.788 290.272C126.788 289.208 127.982 288.799 129.016 288.799C129.941 288.799 130.375 288.999 130.937 289.261C130.772 290.535 129.649 291.437 128.433 291.437ZM140.36 284.203L137.944 290.163H137.873L135.376 284.203H133.11L136.861 292.533L134.721 297.168H136.916L142.697 284.203H140.36ZM121.419 293H123.526V279.25H121.419V293Z" fill="white"/>
<path d="M12.6992 268.293C12.3683 268.631 12.1768 269.158 12.1768 269.84V294.166C12.1768 294.848 12.3683 295.375 12.6992 295.713L12.7809 295.787L26.743 282.161V281.839L12.7809 268.213L12.6992 268.293Z" fill="url(#paint0_linear_9915_27697)"/>
<path d="M31.3901 286.705L26.7412 282.161V281.839L31.3957 277.295L31.4999 277.354L37.0121 280.416C38.5852 281.285 38.5852 282.715 37.0121 283.589L31.4999 286.646L31.3901 286.705Z" fill="url(#paint1_linear_9915_27697)"/>
<path d="M31.5007 286.646L26.742 282L12.6982 295.713C13.2207 296.249 14.0728 296.314 15.0417 295.778L31.5007 286.646Z" fill="url(#paint2_linear_9915_27697)"/>
<path d="M31.5007 277.354L15.0417 268.223C14.0728 267.692 13.2207 267.756 12.6982 268.293L26.742 282L31.5007 277.354Z" fill="url(#paint3_linear_9915_27697)"/>
<path d="M311.214 298.926C311.214 301.271 309.275 303.17 306.877 303.17H164.941C162.544 303.17 160.599 301.271 160.599 298.926V265.08C160.599 262.736 162.544 260.83 164.941 260.83H306.876C309.275 260.83 311.213 262.736 311.213 265.08L311.214 298.926Z" fill="black"/>
<path d="M306.419 260.881C309.03 260.881 311.156 262.953 311.156 265.5V298.5C311.156 301.047 309.03 303.119 306.419 303.119H165.393C162.781 303.119 160.656 301.047 160.656 298.5V265.5C160.656 262.953 162.781 260.881 165.393 260.881H306.419ZM306.419 260H165.393C162.292 260 159.752 262.476 159.752 265.5V298.5C159.752 301.524 162.292 304 165.393 304H306.419C309.52 304 312.06 301.524 312.06 298.5V265.5C312.06 262.476 309.52 260 306.419 260Z" fill="black"/>
<path d="M193.742 281.762C193.71 278.217 196.72 276.492 196.857 276.412C195.153 273.989 192.51 273.658 191.582 273.631C189.363 273.404 187.21 274.926 186.079 274.926C184.926 274.926 183.186 273.653 181.309 273.691C178.895 273.727 176.636 275.09 175.398 277.206C172.841 281.522 174.748 287.863 177.197 291.351C178.422 293.059 179.854 294.967 181.728 294.9C183.561 294.826 184.246 293.76 186.459 293.76C188.651 293.76 189.294 294.9 191.205 294.857C193.173 294.826 194.411 293.141 195.594 291.417C197.01 289.459 197.578 287.531 197.601 287.432C197.554 287.416 193.779 286.012 193.742 281.762Z" fill="white"/>
<path d="M190.132 271.337C191.118 270.134 191.793 268.499 191.605 266.839C190.178 266.9 188.393 267.801 187.366 268.977C186.456 270.013 185.644 271.712 185.854 273.309C187.457 273.426 189.103 272.52 190.132 271.337Z" fill="white"/>
<path d="M220.275 294.655H217.713L216.309 290.355H211.431L210.094 294.655H207.6L212.433 280.016H215.418L220.275 294.655ZM215.886 288.551L214.617 284.728C214.483 284.338 214.231 283.418 213.86 281.97H213.815C213.667 282.593 213.429 283.513 213.102 284.728L211.855 288.551H215.886Z" fill="white"/>
<path d="M232.704 289.247C232.704 291.042 232.207 292.461 231.211 293.503C230.32 294.43 229.213 294.893 227.892 294.893C226.466 294.893 225.442 294.394 224.818 293.395H224.773V298.955H222.367V287.574C222.367 286.445 222.337 285.287 222.278 284.099H224.394L224.528 285.772H224.573C225.375 284.511 226.593 283.882 228.226 283.882C229.503 283.882 230.569 284.374 231.422 285.358C232.278 286.344 232.704 287.64 232.704 289.247ZM230.254 289.333C230.254 288.305 230.017 287.458 229.541 286.792C229.02 286.096 228.322 285.749 227.447 285.749C226.853 285.749 226.314 285.942 225.832 286.324C225.349 286.709 225.033 287.212 224.886 287.834C224.811 288.125 224.774 288.362 224.774 288.549V290.309C224.774 291.077 225.015 291.725 225.498 292.254C225.981 292.783 226.608 293.047 227.38 293.047C228.286 293.047 228.991 292.706 229.495 292.027C230.001 291.346 230.254 290.448 230.254 289.333Z" fill="white"/>
<path d="M245.156 289.247C245.156 291.042 244.659 292.461 243.662 293.503C242.772 294.43 241.665 294.893 240.344 294.893C238.918 294.893 237.894 294.394 237.271 293.395H237.226V298.955H234.821V287.574C234.821 286.445 234.79 285.287 234.731 284.099H236.847L236.981 285.772H237.026C237.827 284.511 239.045 283.882 240.679 283.882C241.955 283.882 243.022 284.374 243.877 285.358C244.728 286.344 245.156 287.64 245.156 289.247ZM242.706 289.333C242.706 288.305 242.468 287.458 241.991 286.792C241.471 286.096 240.775 285.749 239.899 285.749C239.304 285.749 238.766 285.942 238.283 286.324C237.8 286.709 237.485 287.212 237.338 287.834C237.264 288.125 237.226 288.362 237.226 288.549V290.309C237.226 291.077 237.467 291.725 237.948 292.254C238.431 292.782 239.058 293.047 239.832 293.047C240.738 293.047 241.443 292.706 241.947 292.027C242.453 291.346 242.706 290.448 242.706 289.333Z" fill="white"/>
<path d="M259.079 290.549C259.079 291.795 258.636 292.808 257.746 293.59C256.767 294.444 255.406 294.871 253.656 294.871C252.04 294.871 250.745 294.568 249.765 293.959L250.322 292.005C251.378 292.627 252.537 292.94 253.799 292.94C254.705 292.94 255.41 292.739 255.917 292.341C256.421 291.943 256.673 291.408 256.673 290.742C256.673 290.148 256.465 289.647 256.049 289.241C255.635 288.836 254.943 288.458 253.977 288.11C251.349 287.154 250.035 285.753 250.035 283.912C250.035 282.709 250.496 281.722 251.417 280.954C252.336 280.185 253.561 279.801 255.093 279.801C256.459 279.801 257.594 280.033 258.5 280.496L257.899 282.408C257.053 281.959 256.096 281.735 255.025 281.735C254.179 281.735 253.518 281.939 253.044 282.343C252.644 282.705 252.443 283.146 252.443 283.669C252.443 284.247 252.672 284.726 253.132 285.102C253.533 285.45 254.261 285.826 255.317 286.232C256.608 286.739 257.557 287.332 258.168 288.012C258.776 288.689 259.079 289.537 259.079 290.549Z" fill="white"/>
<path d="M267.031 285.859H264.379V290.984C264.379 292.287 264.847 292.939 265.783 292.939C266.213 292.939 266.569 292.902 266.851 292.83L266.918 294.611C266.444 294.783 265.82 294.87 265.047 294.87C264.097 294.87 263.355 294.587 262.819 294.023C262.286 293.458 262.017 292.51 262.017 291.177V285.857H260.438V284.097H262.017V282.164L264.379 281.469V284.097H267.031V285.859Z" fill="white"/>
<path d="M278.994 289.29C278.994 290.912 278.518 292.244 277.568 293.286C276.571 294.359 275.249 294.893 273.601 294.893C272.012 294.893 270.748 294.379 269.804 293.352C268.861 292.325 268.39 291.028 268.39 289.465C268.39 287.829 268.875 286.489 269.848 285.447C270.82 284.405 272.131 283.883 273.779 283.883C275.368 283.883 276.646 284.397 277.61 285.425C278.533 286.423 278.994 287.711 278.994 289.29ZM276.498 289.366C276.498 288.392 276.285 287.557 275.853 286.861C275.348 286.018 274.627 285.598 273.693 285.598C272.726 285.598 271.992 286.019 271.488 286.861C271.056 287.558 270.842 288.406 270.842 289.41C270.842 290.383 271.056 291.218 271.488 291.913C272.008 292.756 272.734 293.176 273.672 293.176C274.59 293.176 275.311 292.747 275.831 291.891C276.275 291.182 276.498 290.338 276.498 289.366Z" fill="white"/>
<path d="M286.812 286.161C286.574 286.118 286.32 286.096 286.054 286.096C285.207 286.096 284.553 286.408 284.093 287.031C283.692 287.581 283.491 288.277 283.491 289.116V294.654H281.087L281.11 287.423C281.11 286.206 281.079 285.099 281.02 284.1H283.115L283.203 286.12H283.269C283.523 285.425 283.924 284.867 284.472 284.448C285.008 284.07 285.587 283.882 286.21 283.882C286.433 283.882 286.634 283.898 286.812 283.925V286.161Z" fill="white"/>
<path d="M297.57 288.877C297.57 289.298 297.541 289.652 297.482 289.941H290.266C290.294 290.984 290.642 291.781 291.313 292.331C291.921 292.823 292.707 293.07 293.673 293.07C294.741 293.07 295.716 292.903 296.593 292.57L296.969 294.198C295.945 294.634 294.736 294.85 293.34 294.85C291.661 294.85 290.343 294.369 289.384 293.406C288.428 292.444 287.948 291.151 287.948 289.53C287.948 287.938 288.394 286.613 289.286 285.555C290.22 284.427 291.483 283.863 293.071 283.863C294.632 283.863 295.813 284.427 296.615 285.555C297.25 286.452 297.57 287.561 297.57 288.877ZM295.276 288.269C295.292 287.574 295.135 286.973 294.809 286.466C294.393 285.814 293.753 285.488 292.892 285.488C292.106 285.488 291.466 285.806 290.977 286.444C290.577 286.951 290.339 287.56 290.266 288.268H295.276V288.269Z" fill="white"/>
<path d="M215.091 271.01C215.091 272.305 214.693 273.279 213.898 273.934C213.161 274.538 212.114 274.84 210.758 274.84C210.085 274.84 209.51 274.811 209.028 274.754V267.68C209.657 267.581 210.334 267.531 211.065 267.531C212.357 267.531 213.33 267.804 213.987 268.352C214.722 268.972 215.091 269.857 215.091 271.01ZM213.845 271.042C213.845 270.202 213.617 269.559 213.161 269.11C212.705 268.662 212.04 268.438 211.163 268.438C210.791 268.438 210.474 268.462 210.211 268.513V273.891C210.356 273.913 210.622 273.923 211.009 273.923C211.914 273.923 212.613 273.677 213.105 273.187C213.596 272.696 213.845 271.981 213.845 271.042Z" fill="white"/>
<path d="M221.701 272.141C221.701 272.938 221.468 273.592 221 274.104C220.511 274.631 219.862 274.894 219.052 274.894C218.271 274.894 217.65 274.642 217.186 274.136C216.723 273.631 216.492 272.994 216.492 272.227C216.492 271.424 216.73 270.765 217.209 270.253C217.687 269.742 218.33 269.485 219.14 269.485C219.921 269.485 220.548 269.737 221.023 270.242C221.474 270.733 221.701 271.366 221.701 272.141ZM220.475 272.178C220.475 271.7 220.369 271.289 220.158 270.947C219.91 270.534 219.556 270.327 219.097 270.327C218.622 270.327 218.261 270.534 218.013 270.947C217.801 271.289 217.696 271.706 217.696 272.199C217.696 272.678 217.802 273.088 218.013 273.43C218.269 273.844 218.626 274.05 219.086 274.05C219.537 274.05 219.891 273.84 220.146 273.419C220.365 273.07 220.475 272.657 220.475 272.178Z" fill="white"/>
<path d="M230.565 269.591L228.901 274.776H227.818L227.129 272.525C226.954 271.963 226.811 271.404 226.701 270.849H226.679C226.577 271.419 226.435 271.977 226.252 272.525L225.52 274.776H224.424L222.859 269.591H224.074L224.676 272.056C224.821 272.639 224.941 273.195 225.037 273.72H225.058C225.146 273.287 225.292 272.735 225.497 272.067L226.252 269.592H227.215L227.939 272.014C228.113 272.605 228.256 273.174 228.365 273.721H228.398C228.478 273.188 228.599 272.619 228.759 272.014L229.404 269.592H230.565V269.591Z" fill="white"/>
<path d="M236.694 274.776H235.512V271.806C235.512 270.891 235.155 270.434 234.44 270.434C234.089 270.434 233.806 270.559 233.586 270.811C233.368 271.063 233.257 271.36 233.257 271.7V274.775H232.075V271.073C232.075 270.617 232.06 270.123 232.032 269.589H233.071L233.127 270.399H233.159C233.297 270.148 233.502 269.94 233.772 269.774C234.092 269.58 234.451 269.482 234.844 269.482C235.34 269.482 235.753 269.638 236.081 269.952C236.49 270.336 236.694 270.909 236.694 271.67V274.776Z" fill="white"/>
<path d="M239.955 274.776H238.773V267.212H239.955V274.776Z" fill="white"/>
<path d="M246.915 272.141C246.915 272.938 246.681 273.592 246.214 274.104C245.725 274.631 245.075 274.894 244.266 274.894C243.484 274.894 242.862 274.642 242.4 274.136C241.937 273.631 241.706 272.994 241.706 272.227C241.706 271.424 241.944 270.765 242.422 270.253C242.901 269.742 243.544 269.485 244.353 269.485C245.135 269.485 245.761 269.737 246.237 270.242C246.688 270.733 246.915 271.366 246.915 272.141ZM245.687 272.178C245.687 271.7 245.581 271.289 245.37 270.947C245.123 270.534 244.769 270.327 244.311 270.327C243.835 270.327 243.474 270.534 243.227 270.947C243.015 271.289 242.91 271.706 242.91 272.199C242.91 272.678 243.016 273.088 243.227 273.43C243.483 273.844 243.839 274.05 244.3 274.05C244.751 274.05 245.104 273.84 245.359 273.419C245.579 273.07 245.687 272.657 245.687 272.178Z" fill="white"/>
<path d="M252.638 274.776H251.576L251.488 274.179H251.455C251.092 274.655 250.574 274.894 249.902 274.894C249.4 274.894 248.994 274.737 248.688 274.424C248.41 274.141 248.271 273.787 248.271 273.368C248.271 272.735 248.542 272.252 249.087 271.917C249.631 271.583 250.396 271.419 251.381 271.427V271.33C251.381 270.647 251.013 270.306 250.276 270.306C249.752 270.306 249.289 270.435 248.89 270.69L248.649 269.933C249.144 269.635 249.754 269.485 250.474 269.485C251.864 269.485 252.561 270.2 252.561 271.63V273.54C252.561 274.058 252.587 274.471 252.638 274.776ZM251.41 272.994V272.195C250.106 272.173 249.454 272.521 249.454 273.24C249.454 273.51 249.528 273.713 249.681 273.848C249.833 273.983 250.027 274.05 250.258 274.05C250.518 274.05 250.76 273.97 250.981 273.811C251.204 273.65 251.34 273.446 251.391 273.197C251.403 273.141 251.41 273.072 251.41 272.994Z" fill="white"/>
<path d="M259.356 274.776H258.307L258.252 273.944H258.219C257.884 274.577 257.313 274.894 256.511 274.894C255.87 274.894 255.336 274.649 254.913 274.158C254.49 273.668 254.279 273.031 254.279 272.249C254.279 271.409 254.508 270.729 254.969 270.21C255.414 269.726 255.96 269.484 256.61 269.484C257.324 269.484 257.824 269.719 258.108 270.188H258.131V267.212H259.314V273.379C259.314 273.884 259.328 274.35 259.356 274.776ZM258.131 272.59V271.725C258.131 271.575 258.12 271.454 258.098 271.362C258.032 271.085 257.888 270.852 257.671 270.663C257.451 270.475 257.186 270.381 256.88 270.381C256.439 270.381 256.093 270.551 255.84 270.893C255.588 271.235 255.461 271.672 255.461 272.206C255.461 272.718 255.581 273.134 255.824 273.454C256.08 273.795 256.425 273.966 256.857 273.966C257.245 273.966 257.556 273.824 257.791 273.539C258.019 273.276 258.131 272.959 258.131 272.59Z" fill="white"/>
<path d="M269.469 272.141C269.469 272.938 269.235 273.592 268.768 274.104C268.278 274.631 267.631 274.894 266.82 274.894C266.04 274.894 265.418 274.642 264.954 274.136C264.491 273.631 264.26 272.994 264.26 272.227C264.26 271.424 264.498 270.765 264.976 270.253C265.455 269.742 266.098 269.485 266.909 269.485C267.688 269.485 268.317 269.737 268.791 270.242C269.242 270.733 269.469 271.366 269.469 272.141ZM268.243 272.178C268.243 271.7 268.137 271.289 267.926 270.947C267.677 270.534 267.325 270.327 266.865 270.327C266.391 270.327 266.03 270.534 265.781 270.947C265.568 271.289 265.464 271.706 265.464 272.199C265.464 272.678 265.57 273.088 265.781 273.43C266.037 273.844 266.393 274.05 266.854 274.05C267.305 274.05 267.66 273.84 267.915 273.419C268.133 273.07 268.243 272.657 268.243 272.178Z" fill="white"/>
<path d="M275.826 274.776H274.644V271.806C274.644 270.891 274.288 270.434 273.571 270.434C273.221 270.434 272.937 270.559 272.719 270.811C272.5 271.063 272.39 271.36 272.39 271.7V274.775H271.207V271.073C271.207 270.617 271.193 270.123 271.165 269.589H272.203L272.258 270.399H272.291C272.43 270.148 272.635 269.94 272.904 269.774C273.225 269.58 273.583 269.482 273.977 269.482C274.472 269.482 274.885 269.638 275.213 269.952C275.623 270.336 275.826 270.909 275.826 271.67V274.776Z" fill="white"/>
<path d="M283.783 270.454H282.481V272.973C282.481 273.614 282.712 273.934 283.17 273.934C283.383 273.934 283.559 273.916 283.697 273.88L283.728 274.754C283.494 274.84 283.187 274.883 282.809 274.883C282.342 274.883 281.979 274.744 281.716 274.467C281.452 274.19 281.321 273.724 281.321 273.069V270.454H280.544V269.591H281.321V268.64L282.48 268.299V269.59H283.782V270.454H283.783Z" fill="white"/>
<path d="M290.043 274.776H288.859V271.828C288.859 270.899 288.503 270.434 287.789 270.434C287.24 270.434 286.866 270.703 286.66 271.242C286.625 271.355 286.605 271.494 286.605 271.657V274.775H285.424V267.212H286.605V270.337H286.628C287 269.768 287.534 269.484 288.225 269.484C288.715 269.484 289.12 269.64 289.441 269.954C289.842 270.344 290.043 270.925 290.043 271.693V274.776Z" fill="white"/>
<path d="M296.499 271.938C296.499 272.145 296.483 272.319 296.455 272.461H292.909C292.925 272.973 293.094 273.364 293.422 273.635C293.722 273.877 294.109 273.998 294.583 273.998C295.108 273.998 295.586 273.916 296.017 273.752L296.202 274.553C295.698 274.766 295.104 274.873 294.417 274.873C293.594 274.873 292.945 274.637 292.476 274.164C292.004 273.691 291.771 273.056 291.771 272.26C291.771 271.477 291.988 270.826 292.427 270.307C292.885 269.753 293.505 269.475 294.286 269.475C295.051 269.475 295.632 269.753 296.025 270.307C296.342 270.747 296.499 271.292 296.499 271.938ZM295.371 271.64C295.38 271.298 295.302 271.003 295.142 270.755C294.936 270.435 294.624 270.274 294.201 270.274C293.815 270.274 293.5 270.43 293.26 270.744C293.063 270.993 292.947 271.292 292.909 271.64H295.371Z" fill="white"/>
<defs>
<linearGradient id="paint0_linear_9915_27697" x1="25.5033" y1="294.419" x2="7.04797" y2="275.517" gradientUnits="userSpaceOnUse">
<stop stop-color="#00A0FF"/>
<stop offset="0.0066" stop-color="#00A1FF"/>
<stop offset="0.2601" stop-color="#00BEFF"/>
<stop offset="0.5122" stop-color="#00D2FF"/>
<stop offset="0.7604" stop-color="#00DFFF"/>
<stop offset="1" stop-color="#00E3FF"/>
</linearGradient>
<linearGradient id="paint1_linear_9915_27697" x1="39.0605" y1="281.998" x2="11.799" y2="281.998" gradientUnits="userSpaceOnUse">
<stop stop-color="#FFE000"/>
<stop offset="0.4087" stop-color="#FFBD00"/>
<stop offset="0.7754" stop-color="#FFA500"/>
<stop offset="1" stop-color="#FF9C00"/>
</linearGradient>
<linearGradient id="paint2_linear_9915_27697" x1="28.9131" y1="279.474" x2="3.8861" y2="253.841" gradientUnits="userSpaceOnUse">
<stop stop-color="#FF3A44"/>
<stop offset="1" stop-color="#C31162"/>
</linearGradient>
<linearGradient id="paint3_linear_9915_27697" x1="9.16314" y1="303.806" x2="20.3388" y2="292.36" gradientUnits="userSpaceOnUse">
<stop stop-color="#32A071"/>
<stop offset="0.0685" stop-color="#2DA771"/>
<stop offset="0.4762" stop-color="#15CF74"/>
<stop offset="0.8009" stop-color="#06E775"/>
<stop offset="1" stop-color="#00F076"/>
</linearGradient>
<clipPath id="clip0_9915_27697">
<rect x="60.5" y="55" width="192" height="192" rx="8" fill="white"/>
</clipPath>
</defs>
</svg>