<svg xmlns="http://www.w3.org/2000/svg" width="135" height="34" viewBox="0 0 135 34" fill="none">
<path d="M10.8658 15.546H16.6954C16.8654 15.546 17.0149 15.4332 17.0616 15.2697L17.607 13.3608C18.044 11.0508 21.9149 11.3005 24.9118 11.5502C30.1993 11.5502 29.1519 19.6589 28.0707 22.8175C27.8879 23.3515 27.3683 23.6624 26.8039 23.6624H7.86736C6.3963 23.9744 6.73879 26.3652 7.1993 27.8965C7.29228 28.2057 7.58372 28.4057 7.90656 28.4032L38.1129 28.1681C38.8541 28.1623 39.449 27.5516 39.4281 26.8106C39.1387 16.5465 37.6453 8.29242 36.7906 4.85439C36.7092 4.52727 36.4183 4.30199 36.0813 4.29335L34.2144 4.24548V4.00519C34.2144 3.68964 33.9586 3.43384 33.6431 3.43384H31.4143C31.0988 3.43384 30.843 3.68964 30.843 4.00519V4.24548L10.6198 4.30584C10.1649 4.3072 9.68872 4.39192 9.38085 4.7267C7.58999 6.67411 9.27601 12.3291 10.5175 15.316C10.576 15.4568 10.7133 15.546 10.8658 15.546Z" fill="white"/>
<path d="M37.96 6.21313L38.8612 6.09673C39.6957 5.98894 40.4596 6.57808 40.5674 7.41261L41.074 11.335C41.1818 12.1695 40.5927 12.9334 39.7582 13.0412L38.857 13.1576L37.96 6.21313Z" fill="white"/>
<ellipse cx="32.5908" cy="10.1143" rx="3.74603" ry="3.74603" fill="white"/>
<g clipPath="url(#clip0_6958_30906)">
<path d="M32.5912 11.7685L32.3347 11.535C31.4237 10.7089 30.8223 10.1623 30.8223 9.49539C30.8223 8.94878 31.2504 8.52246 31.7952 8.52246C32.103 8.52246 32.3984 8.66575 32.5912 8.8904C32.784 8.66575 33.0795 8.52246 33.3873 8.52246C33.9321 8.52246 34.3602 8.94878 34.3602 9.49539C34.3602 10.1623 33.7587 10.7089 32.8477 11.535L32.5912 11.7685Z" fill="#323232"/>
</g>
<rect width="2.12275" height="1.99788" transform="translate(31.5918 1.49829)" fill="#323232"/>
<rect x="31.063" y="0.844372" width="3.18097" height="0.558753" fill="#4C7AFF"/>
<rect x="31.063" y="0.844372" width="3.18097" height="0.558753" stroke="#4C7AFF" strokeWidth="0.190452"/>
<rect width="0.624339" height="0.749205" transform="translate(32.3408)" fill="#323232"/>
<rect x="11.4883" y="15.6084" width="1.24868" height="4.37037" fill="#323232"/>
<rect x="12.7373" y="17.7312" width="0.749205" height="0.499471" fill="#323232"/>
<rect x="13.4863" y="17.2319" width="0.49947" height="1.62328" fill="#323232"/>
<rect x="11.8633" y="19.979" width="0.49947" height="2.37248" fill="#323232"/>
<path d="M13.7988 21.5396L18.0443 22.4761L23.039 23.2878L20.7289 27.6581L18.4813 32.0909L13.1745 30.5925L8.11731 29.2814L11.4263 24.9111L13.7988 21.5396Z" fill="#FF4C7A"/>
<path d="M12.9691 24.6433L13.8566 23.3663L14.0912 23.5293L14.4263 23.0471L15.0213 23.1753L15.0815 22.896L16.6438 23.2326L16.5836 23.5118L17.3647 23.6801L17.3728 23.6818L17.3809 23.6831L18.3004 23.8265L18.3444 23.5442L20.1835 23.831L20.1395 24.1133L20.6644 24.1952L20.416 24.6679L20.6689 24.8008L19.8008 26.4534L19.5479 26.3205L19.1138 27.1469L19.1138 27.1468L19.1116 27.151L18.689 27.989L18.944 28.1176L18.0986 29.7935L17.8436 29.6649L17.5266 30.2933L17.2648 30.2203L17.1881 30.4955L16.2122 30.2235L16.2889 29.9483L15.3131 29.6763L15.2364 29.9515L14.2606 29.6795L14.3373 29.4043L13.8494 29.2683L13.8494 29.2682L13.8433 29.2667L12.9132 29.0294L12.8426 29.3062L10.9823 28.8318L11.0529 28.5549L10.5366 28.4232L10.5903 28.3513L10.3614 28.1804L10.9796 27.3523L11.2086 27.5232L11.8269 26.695L11.5979 26.5241L12.2162 25.696L12.4451 25.8669L12.7543 25.4528L12.7544 25.4529L12.76 25.4449L13.2037 24.8064L12.9691 24.6433Z" stroke="#32343A" strokeWidth="0.571357" strokeDasharray="1.33 1.33"/>
<path d="M1.81124 28.0328C0.999606 27.2212 0.0880728 25.2607 2.93505 23.9122C6.49378 22.2265 7.11811 18.5429 4.8705 16.982C2.62288 15.4212 3.18479 20.6656 7.11811 21.4148C11.0514 22.164 15.0472 22.1016 15.6715 15.6085C16.2959 9.11536 14.8599 4.99473 19.4176 3.87092C23.0637 2.97188 29.0532 2.62225 31.5922 2.55981" stroke="#323232" strokeWidth="0.761809"/>
<ellipse cx="16.1085" cy="8.11643" rx="1.74815" ry="1.74815" fill="#4D7AFF"/>
<path d="M55.8688 24.3434H48.8525C48.5888 24.3434 48.3944 24.2879 48.2695 24.1768C48.1585 24.0519 48.103 23.8576 48.103 23.5939V10.1025C48.103 9.83874 48.1585 9.65136 48.2695 9.54032C48.3944 9.4154 48.5888 9.35294 48.8525 9.35294H55.8688C57.6039 9.35294 58.8878 9.69994 59.7206 10.3939C60.5672 11.0879 60.9906 12.1567 60.9906 13.6002V20.0961C60.9906 21.5396 60.5672 22.6084 59.7206 23.3024C58.8878 23.9964 57.6039 24.3434 55.8688 24.3434ZM50.3723 22.4696H55.4108C56.1187 22.4696 56.6947 22.4002 57.1389 22.2614C57.583 22.1087 57.9231 21.9074 58.1591 21.6576C58.395 21.4078 58.5477 21.1093 58.6171 20.7623C58.7004 20.4153 58.742 20.0406 58.742 19.638V14.1207C58.742 13.7182 58.7004 13.3434 58.6171 12.9964C58.5338 12.6356 58.3742 12.3302 58.1382 12.0804C57.9023 11.8166 57.5622 11.6084 57.1181 11.4558C56.6878 11.3031 56.1187 11.2267 55.4108 11.2267H50.3723V22.4696ZM55.4108 11.4349C56.0632 11.4349 56.5906 11.5043 56.9931 11.6431C57.4095 11.7819 57.7288 11.9693 57.9509 12.2053C58.1729 12.4412 58.3256 12.7258 58.4089 13.0589C58.4922 13.392 58.5338 13.746 58.5338 14.1207V19.638C58.5338 20.0128 58.4922 20.3668 58.4089 20.6999C58.3395 21.0191 58.1938 21.2967 57.9717 21.5327C57.7496 21.7548 57.4304 21.9352 57.014 22.074C56.6114 22.1989 56.077 22.2614 55.4108 22.2614H50.5806V11.4349H55.4108ZM52.8291 13.3296V20.4084H55.3067C55.6398 20.4084 55.8827 20.3251 56.0354 20.1586C56.202 19.992 56.2852 19.7352 56.2852 19.3882V14.3289C56.2852 13.9819 56.202 13.7321 56.0354 13.5794C55.8827 13.4128 55.6398 13.3296 55.3067 13.3296H52.8291ZM65.7395 18.0349C65.7395 17.6601 65.7673 17.3131 65.8228 16.9939C65.8922 16.6747 65.9755 16.3762 66.0726 16.0986L67.4051 12.6841C67.5439 12.3371 67.6966 12.0457 67.8632 11.8097C68.0297 11.5599 68.3212 11.4349 68.7376 11.4349H70.778C71.1666 11.4349 71.4442 11.5599 71.6108 11.8097C71.7773 12.0457 71.9369 12.3441 72.0896 12.705L73.5262 16.0986C73.6234 16.3762 73.6997 16.6747 73.7552 16.9939C73.8246 17.3131 73.8593 17.6601 73.8593 18.0349V18.6803H65.7395V18.0349ZM69.0707 13.7251L68.0922 16.8898H71.3609L70.3824 13.7251C70.3269 13.6002 70.2644 13.51 70.195 13.4545C70.1395 13.399 70.0701 13.3712 69.9868 13.3712H69.4663C69.383 13.3712 69.3067 13.399 69.2373 13.4545C69.1818 13.51 69.1262 13.6002 69.0707 13.7251ZM73.8593 22.4696H74.0675V18.0349C74.0675 17.6463 74.0328 17.2923 73.9634 16.9731C73.9079 16.64 73.8246 16.3207 73.7136 16.0154L72.277 12.6217C72.1104 12.2192 71.93 11.886 71.7357 11.6223C71.5552 11.3586 71.236 11.2267 70.778 11.2267H68.7376C68.2657 11.2267 67.9326 11.3586 67.7382 11.6223C67.5439 11.886 67.3704 12.2122 67.2177 12.6009L65.8852 16.0154C65.7742 16.3207 65.684 16.64 65.6146 16.9731C65.5591 17.2923 65.5313 17.6463 65.5313 18.0349V22.4696H65.7395V18.8885H73.8593V22.4696ZM67.884 23.5939C67.884 23.8576 67.8215 24.0519 67.6966 24.1768C67.5856 24.2879 67.3982 24.3434 67.1345 24.3434H64.0739C63.8102 24.3434 63.6159 24.2879 63.4909 24.1768C63.3799 24.0519 63.3244 23.8576 63.3244 23.5939V18.0974C63.3244 17.681 63.3868 17.2021 63.5118 16.6608C63.6506 16.1195 63.8588 15.4879 64.1364 14.7662L65.9477 10.04C66.031 9.80404 66.1559 9.63054 66.3225 9.5195C66.5029 9.40846 66.7319 9.35294 67.0095 9.35294H72.6101C72.8739 9.35294 73.089 9.40846 73.2556 9.5195C73.436 9.63054 73.5679 9.80404 73.6511 10.04L75.4625 14.7662C75.7401 15.4879 75.9413 16.1195 76.0663 16.6608C76.2051 17.2021 76.2745 17.681 76.2745 18.0974V23.5939C76.2745 23.8576 76.212 24.0519 76.0871 24.1768C75.976 24.2879 75.7887 24.3434 75.5249 24.3434H72.3811C72.1035 24.3434 71.8953 24.2879 71.7565 24.1768C71.6316 24.0519 71.5691 23.8576 71.5691 23.5939V20.6791H67.884V23.5939ZM85.8406 11.4349C86.5763 11.4349 87.1176 11.6362 87.4646 12.0387C87.8255 12.4412 88.0059 12.9617 88.0059 13.6002V15.0576C88.0059 15.821 87.8602 16.4109 87.5687 16.8273C87.2772 17.2437 86.7012 17.4519 85.8406 17.4519H81.3019V11.4349H85.8406ZM83.5504 13.1005V15.7655H85.1119C85.4728 15.7655 85.7157 15.6753 85.8406 15.4949C85.9656 15.3005 86.028 15.0646 86.028 14.787V14.0791C86.028 13.8015 85.9656 13.5725 85.8406 13.392C85.7157 13.1977 85.4728 13.1005 85.1119 13.1005H83.5504ZM81.3019 22.4696V17.6393H87.1939C87.9851 17.6393 88.5681 17.8128 88.9428 18.1598C89.3176 18.4929 89.505 18.9996 89.505 19.6797V22.4696H89.7132V19.6797C89.7132 18.9579 89.505 18.4097 89.0886 18.0349C88.6722 17.6463 88.0406 17.4519 87.1939 17.4519H86.9649C87.4646 17.2993 87.7977 17.0217 87.9643 16.6191C88.1308 16.2027 88.2141 15.6753 88.2141 15.0368V13.6002C88.2141 12.9201 88.0198 12.358 87.6312 11.9138C87.2425 11.4558 86.6457 11.2267 85.8406 11.2267H81.0937V22.4696H81.3019ZM82.8009 24.3434H79.5946C79.3309 24.3434 79.1366 24.2879 79.0116 24.1768C78.9006 24.0519 78.8451 23.8576 78.8451 23.5939V10.1025C78.8451 9.83874 78.9006 9.65136 79.0116 9.54032C79.1366 9.4154 79.3309 9.35294 79.5946 9.35294H86.5277C88.0823 9.35294 89.151 9.67912 89.734 10.3315C90.3308 10.97 90.6292 11.8028 90.6292 12.8299V13.7876C90.6292 14.3706 90.539 14.8703 90.3586 15.2867C90.192 15.6892 89.8936 15.9807 89.4633 16.1611C90.2128 16.2444 90.8166 16.5497 91.2747 17.0772C91.7466 17.6046 91.9826 18.3056 91.9826 19.18V23.5939C91.9826 23.8576 91.9201 24.0519 91.7952 24.1768C91.6841 24.2879 91.4967 24.3434 91.233 24.3434H88.0059C87.7422 24.3434 87.5479 24.2879 87.423 24.1768C87.3119 24.0519 87.2564 23.8576 87.2564 23.5939V20.4084C87.2564 20.103 87.1939 19.8809 87.069 19.7421C86.958 19.5895 86.7567 19.5131 86.4652 19.5131H83.5504V23.5939C83.5504 23.8576 83.488 24.0519 83.363 24.1768C83.252 24.2879 83.0646 24.3434 82.8009 24.3434ZM104.915 24.3434H94.5885C94.3248 24.3434 94.1304 24.2879 94.0055 24.1768C93.8945 24.0519 93.839 23.8576 93.839 23.5939V20.804C93.839 20.5403 93.8806 20.3112 93.9639 20.1169C94.0472 19.9087 94.179 19.7074 94.3595 19.5131L99.4187 13.3712H94.9632C94.6995 13.3712 94.5052 13.3157 94.3803 13.2046C94.2692 13.0797 94.2137 12.8854 94.2137 12.6217V10.1025C94.2137 9.83874 94.2692 9.65136 94.3803 9.54032C94.5052 9.4154 94.6995 9.35294 94.9632 9.35294H104.54C104.804 9.35294 104.992 9.4154 105.103 9.54032C105.228 9.65136 105.29 9.83874 105.29 10.1025V13.2046C105.29 13.4822 105.248 13.7252 105.165 13.9334C105.082 14.1277 104.95 14.322 104.769 14.5163L99.9392 20.3668H104.915C105.179 20.3668 105.366 20.4292 105.477 20.5541C105.602 20.6652 105.665 20.8526 105.665 21.1163V23.5939C105.665 23.8576 105.602 24.0519 105.477 24.1768C105.366 24.2879 105.179 24.3434 104.915 24.3434ZM102.729 13.0173C102.826 12.8923 102.91 12.7744 102.979 12.6633C103.048 12.5384 103.083 12.3996 103.083 12.2469V11.9138C103.083 11.6778 103.028 11.5043 102.917 11.3933C102.819 11.2823 102.66 11.2267 102.438 11.2267H96.0875V11.4349H102.438C102.549 11.4349 102.646 11.4696 102.729 11.539C102.826 11.5946 102.875 11.7195 102.875 11.9138V12.2053C102.875 12.3441 102.847 12.4551 102.792 12.5384C102.75 12.6217 102.681 12.7258 102.583 12.8507L96.4831 20.6791C96.3859 20.804 96.3027 20.9289 96.2333 21.0538C96.1639 21.1649 96.1292 21.2967 96.1292 21.4494V21.7825C96.1292 22.0185 96.1777 22.192 96.2749 22.303C96.3859 22.4141 96.5525 22.4696 96.7746 22.4696H103.791V22.2614H96.7746C96.6635 22.2614 96.5594 22.2336 96.4623 22.1781C96.379 22.1087 96.3374 21.9768 96.3374 21.7825V21.491C96.3374 21.3522 96.3582 21.2412 96.3998 21.1579C96.4553 21.0746 96.5317 20.9705 96.6288 20.8456L102.729 13.0173ZM118.472 24.3434H108.812C108.548 24.3434 108.354 24.2879 108.229 24.1768C108.118 24.0519 108.062 23.8576 108.062 23.5939V10.1025C108.062 9.83874 108.118 9.65136 108.229 9.54032C108.354 9.4154 108.548 9.35294 108.812 9.35294H118.472C118.736 9.35294 118.923 9.4154 119.034 9.54032C119.159 9.65136 119.222 9.83874 119.222 10.1025V12.5384C119.222 12.8021 119.159 12.9964 119.034 13.1214C118.923 13.2324 118.736 13.2879 118.472 13.2879H112.726V14.8911H116.786C117.05 14.8911 117.237 14.9535 117.348 15.0785C117.473 15.1895 117.535 15.3769 117.535 15.6406V17.8683C117.535 18.1321 117.473 18.3264 117.348 18.4513C117.237 18.5623 117.05 18.6179 116.786 18.6179H112.726V20.4084H118.472C118.736 20.4084 118.923 20.4709 119.034 20.5958C119.159 20.7068 119.222 20.8942 119.222 21.1579V23.5939C119.222 23.8576 119.159 24.0519 119.034 24.1768C118.923 24.2879 118.736 24.3434 118.472 24.3434ZM117.348 22.2614H110.54V16.869H115.662V16.6608H110.54V11.4349H117.348V11.2267H110.332V22.4696H117.348V22.2614ZM132.095 24.3434H122.434C122.171 24.3434 121.976 24.2879 121.851 24.1768C121.74 24.0519 121.685 23.8576 121.685 23.5939V10.1025C121.685 9.83874 121.74 9.65136 121.851 9.54032C121.976 9.4154 122.171 9.35294 122.434 9.35294H132.095C132.359 9.35294 132.546 9.4154 132.657 9.54032C132.782 9.65136 132.844 9.83874 132.844 10.1025V12.5384C132.844 12.8021 132.782 12.9964 132.657 13.1214C132.546 13.2324 132.359 13.2879 132.095 13.2879H126.349V14.8911H130.408C130.672 14.8911 130.86 14.9535 130.971 15.0785C131.095 15.1895 131.158 15.3769 131.158 15.6406V17.8683C131.158 18.1321 131.095 18.3264 130.971 18.4513C130.86 18.5623 130.672 18.6179 130.408 18.6179H126.349V20.4084H132.095C132.359 20.4084 132.546 20.4709 132.657 20.5958C132.782 20.7068 132.844 20.8942 132.844 21.1579V23.5939C132.844 23.8576 132.782 24.0519 132.657 24.1768C132.546 24.2879 132.359 24.3434 132.095 24.3434ZM130.971 22.2614H124.162V16.869H129.284V16.6608H124.162V11.4349H130.971V11.2267H123.954V22.4696H130.971V22.2614Z" fill="white"/>
<defs>
<clipPath id="clip0_6958_30906">
<rect width="4.2455" height="4.2455" fill="white" transform="translate(30.4678 7.99158)"/>
</clipPath>
</defs>
</svg>